<?xml version="1.0" encoding="UTF-8" standalone="no"?>
<!-- Created with Inkscape (http://www.inkscape.org/) -->

<svg
   xmlns:dc="http://purl.org/dc/elements/1.1/"
   xmlns:cc="http://creativecommons.org/ns#"
   xmlns:rdf="http://www.w3.org/1999/02/22-rdf-syntax-ns#"
   xmlns:svg="http://www.w3.org/2000/svg"
   xmlns="http://www.w3.org/2000/svg"
   xmlns:xlink="http://www.w3.org/1999/xlink"
   xmlns:sodipodi="http://sodipodi.sourceforge.net/DTD/sodipodi-0.dtd"
   xmlns:inkscape="http://www.inkscape.org/namespaces/inkscape"
   width="600"
   height="600"
   viewBox="0 0 600.00002 600.00002"
   id="svg2"
   version="1.1"
   inkscape:version="0.91 r13725"
   sodipodi:docname="logo_1.svg">
  <sodipodi:namedview
     id="base"
     pagecolor="#ffffff"
     bordercolor="#666666"
     borderopacity="1.0"
     inkscape:pageopacity="0.0"
     inkscape:pageshadow="2"
     inkscape:zoom="0.70710678"
     inkscape:cx="113.55456"
     inkscape:cy="438.74059"
     inkscape:document-units="px"
     inkscape:current-layer="layer2"
     showgrid="false"
     units="px"
     inkscape:window-width="1280"
     inkscape:window-height="752"
     inkscape:window-x="0"
     inkscape:window-y="0"
     inkscape:window-maximized="1" />
  <defs
     id="defs4">
    <linearGradient
       inkscape:collect="always"
       id="linearGradient5068">
      <stop
         style="stop-color:#000000;stop-opacity:1;"
         offset="0"
         id="stop5070" />
      <stop
         style="stop-color:#000000;stop-opacity:0.00176471"
         offset="1"
         id="stop5072" />
    </linearGradient>
    <linearGradient
       inkscape:collect="always"
       xlink:href="#linearGradient5068"
       id="linearGradient5074"
       x1="244.65895"
       y1="250.68925"
       x2="393.15137"
       y2="400.59589"
       gradientUnits="userSpaceOnUse" />
    <clipPath
       clipPathUnits="userSpaceOnUse"
       id="clipPath5138">
      <circle
         r="116.67262"
         cy="223.11209"
         cx="219.9102"
         id="circle5140"
         style="opacity:1;fill:#ff3e41;fill-opacity:1" />
    </clipPath>
    <clipPath
       clipPathUnits="userSpaceOnUse"
       id="clipPath5142">
      <circle
         r="116.67262"
         cy="223.11209"
         cx="219.9102"
         id="circle5144"
         style="opacity:1;fill:#ff3e41;fill-opacity:1" />
    </clipPath>
    <clipPath
       clipPathUnits="userSpaceOnUse"
       id="clipPath5146">
      <circle
         r="116.67262"
         cy="223.11209"
         cx="219.9102"
         id="circle5148"
         style="opacity:1;fill:#ff3e41;fill-opacity:1" />
    </clipPath>
    <clipPath
       clipPathUnits="userSpaceOnUse"
       id="clipPath5150">
      <circle
         r="116.67262"
         cy="223.11209"
         cx="219.9102"
         id="circle5152"
         style="opacity:1;fill:#ff3e41;fill-opacity:1" />
    </clipPath>
    <clipPath
       clipPathUnits="userSpaceOnUse"
       id="clipPath5154">
      <circle
         r="116.67262"
         cy="223.11209"
         cx="219.9102"
         id="circle5156"
         style="opacity:1;fill:#ff3e41;fill-opacity:1" />
    </clipPath>
    <clipPath
       clipPathUnits="userSpaceOnUse"
       id="clipPath5158">
      <circle
         r="116.67262"
         cy="223.11209"
         cx="219.9102"
         id="circle5160"
         style="opacity:1;fill:#ff3e41;fill-opacity:1" />
    </clipPath>
  </defs>
  <metadata
     id="metadata7">
    <rdf:RDF>
      <cc:Work
         rdf:about="">
        <dc:format>image/svg+xml</dc:format>
        <dc:type
           rdf:resource="http://purl.org/dc/dcmitype/StillImage" />
        <dc:title></dc:title>
      </cc:Work>
    </rdf:RDF>
  </metadata>
  <g
     style="display:none"
     transform="translate(0,-452.36203)"
     id="layer1"
     inkscape:groupmode="layer"
     inkscape:label="Background">
    <rect
       y="529.82031"
       x="64.129433"
       height="299.19193"
       width="299.19193"
       id="rect3348"
       style="fill:#ff3e41;fill-opacity:1;fill-rule:evenodd;stroke:#000000;stroke-width:0.80807227px;stroke-linecap:butt;stroke-linejoin:miter;stroke-opacity:1" />
  </g>
  <g
     inkscape:groupmode="layer"
     id="layer3"
     inkscape:label="Background 1"
     sodipodi:insensitive="true">
    <circle
       style="opacity:1;fill:#ff3e41;fill-opacity:1"
       id="path5133"
       cx="219.9102"
       cy="223.11209"
       r="116.67262" />
  </g>
  <g
     inkscape:label="Icon"
     id="layer2"
     inkscape:groupmode="layer"
     style="display:inline">
    <g
       id="g5076"
       clip-path="url(#clipPath5158)">
      <path
         id="path4199"
         d="m 214.21289,164.71484 c -5.21484,2.57812 -9.14062,5.41992 -11.77734,8.52539 -2.57813,3.04687 -3.86719,6.38672 -3.86719,10.01954 0,4.10156 0.96679,8.14452 2.90039,12.1289 1.99218,3.92578 6.47461,10.51757 13.44727,19.77539 l -30.0586,14.32617 0.0176,0.0176 0.0273,0.0273 0.0371,0.0371 0.0488,0.0488 0.0606,0.0605 0.0703,0.0703 0.082,0.082 0.0937,0.0918 0.10352,0.10352 0.11328,0.11523 0.125,0.125 0.13672,0.13672 0.14648,0.14648 0.1582,0.15821 0.16797,0.16797 0.17969,0.17968 0.19141,0.19141 0.20117,0.20117 0.21289,0.21289 0.22266,0.22266 0.23437,0.23437 0.2461,0.24414 0.25585,0.25586 0.26563,0.26758 0.27734,0.27735 0.28907,0.28906 0.30078,0.29883 0.30859,0.31054 0.32227,0.32227 0.33203,0.33203 0.34375,0.3418 0.35351,0.35547 0.36524,0.36328 0.375,0.37695 0.38672,0.38672 0.39843,0.39648 0.40821,0.40821 0.41797,0.41992 0.43164,0.42969 0.43945,0.4414 0.0801,0.0801 0.37304,0.37305 0.0645,0.0625 0.10351,0.10351 0.29493,0.29688 0.47265,0.47265 0.48438,0.48438 0.49609,0.49609 0.50781,0.50586 0.0801,0.0801 0.25586,0.25586 0.17969,0.18164 0.52929,0.5293 0.42383,0.42187 0.11524,0.11719 0.54882,0.54883 0.5625,0.56054 0.0801,0.0801 0.0977,0.0977 0.39258,0.39453 0.22851,0.22656 0.35547,0.35547 0.0215,0.0215 0.38671,0.38671 0.18555,0.18555 0.21094,0.21094 0.0996,0.10156 0.29297,0.29297 0.0156,0.0137 0.59961,0.60156 0.22656,0.22657 0.0234,0.0215 0.37696,0.37695 0.0645,0.0645 0.40234,0.40234 0.16992,0.17188 0.64844,0.64648 0.58203,0.58399 0.0762,0.0762 0.66993,0.66992 0.32422,0.32422 0.35546,0.35547 0.69336,0.6914 0.70118,0.70313 0.71289,0.71289 0.23437,0.23242 0.49024,0.49219 0.66406,0.66211 0.0723,0.0723 0.52149,0.52149 0.22461,0.22461 0.75586,0.75781 0.76757,0.76758 0.0977,0.0957 0.68164,0.68359 0.60352,0.60157 0.18554,0.1875 0.80079,0.80078 0.81054,0.81054 0.82227,0.82227 0.082,0.0801 0.75195,0.7539 0.84375,0.84375 0.85547,0.85547 0.42383,0.42188 0.002,0.002 c -2.71305,1.10069 -5.79414,1.68533 -9.26953,1.71875 -3.69141,0 -7.32423,-0.70312 -10.89844,-2.10937 -3.57422,-1.40625 -7.11914,-3.54493 -10.63476,-6.41602 l 0,4.04297 c 0.006,0.006 0.012,0.0114 0.0176,0.0176 0.49988,0.55006 1.00711,1.08552 1.51953,1.60156 0.003,0.003 0.006,0.006 0.01,0.01 0.007,0.007 0.0143,0.0143 0.0215,0.0215 0.004,0.004 0.008,0.008 0.0117,0.0117 0.007,0.007 0.0143,0.0142 0.0215,0.0215 0.0146,0.0148 0.0303,0.0282 0.0449,0.043 0.0182,0.0184 0.0365,0.0364 0.0547,0.0547 0.0221,0.0223 0.0443,0.0442 0.0664,0.0664 0.0253,0.0256 0.0508,0.0507 0.0762,0.0762 0.0299,0.0302 0.0599,0.0598 0.0898,0.0898 0.0332,0.0335 0.0664,0.0663 0.0996,0.0996 0.0361,0.0364 0.0732,0.0712 0.10938,0.10742 0.04,0.0403 0.0791,0.081 0.11914,0.1211 0.0438,0.0443 0.0889,0.0868 0.13281,0.13086 0.0474,0.0479 0.0951,0.095 0.14258,0.14257 0.0506,0.0512 0.10156,0.10148 0.15234,0.15235 0.0617,0.0624 0.12363,0.12362 0.18555,0.18554 0.0517,0.0523 0.10439,0.1024 0.15625,0.1543 0.0545,0.0551 0.10944,0.10934 0.16406,0.16406 0.0723,0.0732 0.14428,0.14622 0.2168,0.21875 0.0688,0.0696 0.138,0.13802 0.20703,0.20703 0.0727,0.0736 0.14582,0.14586 0.21875,0.21876 0.0762,0.0772 0.15394,0.15205 0.23047,0.22851 0.0805,0.0815 0.1614,0.16152 0.24218,0.24219 0.0838,0.0849 0.16787,0.16801 0.25196,0.25195 0.087,0.0881 0.1744,0.17458 0.26172,0.26172 0.0967,0.0981 0.19384,0.19419 0.29101,0.29102 0.0815,0.0825 0.16431,0.16249 0.2461,0.24414 0.10465,0.10626 0.20927,0.21156 0.31445,0.3164 0.10777,0.10934 0.21589,0.2164 0.32422,0.32422 0.0922,0.0934 0.18674,0.18308 0.27929,0.27539 0.115,0.11687 0.23007,0.23251 0.34571,0.34766 0.11283,0.11457 0.2264,0.22693 0.33984,0.33984 0.11538,0.11719 0.23164,0.23221 0.34766,0.34766 0.12059,0.12252 0.24199,0.24265 0.36328,0.36328 0.12218,0.12415 0.24624,0.24498 0.36914,0.36719 0.12673,0.12882 0.25336,0.25608 0.38086,0.38281 0.13126,0.13346 0.2644,0.26331 0.39648,0.39453 0.13425,0.13652 0.26919,0.27012 0.4043,0.4043 0.13639,0.13873 0.27287,0.27579 0.41016,0.41211 0.14224,0.14474 0.28647,0.28562 0.42968,0.42773 0.15047,0.15314 0.30157,0.30293 0.45313,0.45313 0.13582,0.13812 0.27345,0.27247 0.41015,0.4082 0.15829,0.16138 0.31708,0.32041 0.47657,0.47852 0.15515,0.15805 0.31244,0.31188 0.46875,0.46679 0.15936,0.16239 0.31988,0.3214 0.48047,0.48047 0.1626,0.16575 0.32635,0.32794 0.49023,0.49024 0.16645,0.1697 0.33417,0.33586 0.50195,0.50195 0.17002,0.1734 0.34031,0.34404 0.51172,0.51367 0.17387,0.17736 0.35007,0.35002 0.52539,0.52344 0.17677,0.18036 0.35493,0.35691 0.53321,0.5332 0.18716,0.19103 0.37561,0.37799 0.56445,0.56445 0.17393,0.17738 0.35,0.35001 0.52539,0.52344 0.19226,0.19649 0.38604,0.38842 0.58008,0.58008 0.19292,0.19706 0.38732,0.38983 0.58203,0.58203 0.19546,0.19968 0.39254,0.39516 0.58984,0.58984 0.19753,0.20183 0.3963,0.39897 0.59571,0.59571 0.20192,0.20641 0.40549,0.40828 0.60937,0.60937 0.20709,0.21176 0.41585,0.41884 0.625,0.625 0.20865,0.21338 0.42012,0.42121 0.63086,0.62891 0.21419,0.21913 0.43009,0.43334 0.64648,0.64648 0.21542,0.22042 0.43275,0.43604 0.6504,0.65039 0.22027,0.2255 0.44144,0.44687 0.66406,0.66602 0.22414,0.22951 0.45117,0.45284 0.67773,0.67578 0.22904,0.23459 0.45984,0.46368 0.69141,0.69141 0.22975,0.23532 0.46107,0.46494 0.69336,0.69336 0.24032,0.24626 0.48345,0.4859 0.72656,0.72461 0.2271,0.23255 0.45596,0.45973 0.68555,0.68554 0.24852,0.25505 0.4985,0.50499 0.75,0.75196 0.24567,0.25191 0.4936,0.49817 0.74219,0.74218 0.24744,0.25379 0.49764,0.50032 0.74804,0.7461 0.25279,0.25939 0.50781,0.51264 0.76367,0.76367 0.256,0.26275 0.51428,0.51926 0.77344,0.77344 0.25985,0.26679 0.52205,0.5272 0.78516,0.78515 0.26306,0.27016 0.52852,0.53383 0.79492,0.79492 0.26724,0.27454 0.53791,0.54146 0.80859,0.80664 0.27084,0.27831 0.54398,0.54967 0.81836,0.81836 0.27406,0.28168 0.55045,0.5563 0.82813,0.82813 0.27752,0.28531 0.55664,0.56462 0.83789,0.83984 0.28138,0.28936 0.56636,0.57063 0.85156,0.84961 0.28492,0.29308 0.57249,0.5789 0.86133,0.86133 0.28813,0.29645 0.57895,0.58553 0.87109,0.87109 0.29393,0.30251 0.59058,0.59749 0.88867,0.88868 0.29602,0.30466 0.59428,0.60135 0.89454,0.89453 0.29727,0.30602 0.59689,0.604 0.89843,0.89843 0.30257,0.31165 0.60903,0.61443 0.91602,0.91407 0.30641,0.3157 0.61483,0.62435 0.92578,0.92773 0.31547,0.32513 0.63479,0.64106 0.95508,0.95313 0.30359,0.31267 0.60992,0.61738 0.91797,0.91797 0.32139,0.33165 0.64626,0.65456 0.97265,0.97265 0.32084,0.33094 0.64489,0.65328 0.97071,0.97071 0.32633,0.33667 0.65679,0.66363 0.98828,0.98632 0.32585,0.33616 0.65339,0.66412 0.98437,0.98633 0.33338,0.34413 0.67102,0.67828 1.00977,1.00781 0.33323,0.34396 0.66921,0.67844 1.00781,1.00782 0.33848,0.34957 0.67942,0.69086 1.02344,1.02539 0.34167,0.35297 0.68784,0.69557 1.03515,1.0332 0.34585,0.35739 0.69524,0.70521 1.04688,1.04687 0.34943,0.36121 0.70325,0.71149 1.05859,1.05665 0.35258,0.36452 0.70781,0.72017 1.06641,1.06835 0.35642,0.3686 0.71751,0.72623 1.08008,1.07813 0.36221,0.3747 0.72713,0.74021 1.0957,1.09766 0.3637,0.3762 0.73146,0.74079 1.10156,1.09961 0.36527,0.37793 0.73374,0.74507 1.10547,1.10546 0.37083,0.38391 0.74556,0.75723 1.12305,1.12305 0.37402,0.38731 0.752,0.76391 1.13281,1.13281 0.37785,0.39141 0.75976,0.77192 1.14453,1.14454 0.38106,0.3948 0.76621,0.77859 1.1543,1.15429 0.38748,0.4016 0.77907,0.79199 1.17383,1.17383 0.38867,0.40278 0.78174,0.79288 1.17773,1.17578 0.39024,0.40452 0.78402,0.79717 1.18164,1.18164 0.39513,0.40983 0.79457,0.808 1.19727,1.19727 0.3996,0.4146 0.80359,0.81736 1.21094,1.21093 0.40279,0.41802 0.81003,0.82406 1.2207,1.22071 0.40599,0.42142 0.81647,0.83075 1.23047,1.23047 0.41241,0.42823 0.82933,0.84417 1.25,1.25 0.41363,0.42944 0.83196,0.847 1.2539,1.2539 0.41423,0.43016 0.8333,0.84831 1.25586,1.25586 0.42296,0.43953 0.85156,0.86531 1.28321,1.28125 0.4222,0.43871 0.84843,0.86409 1.27929,1.2793 0.43032,0.44739 0.86538,0.88171 1.30469,1.30469 0.43494,0.45214 0.87423,0.89115 1.31836,1.31836 0.42868,0.44548 0.86122,0.87756 1.29883,1.29882 0.43854,0.45636 0.88218,0.89909 1.33008,1.33008 0.44207,0.46013 0.89023,0.9055 1.34179,1.33985 0.44558,0.46391 0.89633,0.91384 1.35157,1.35156 0.44877,0.46734 0.90276,0.92056 1.36132,1.36133 0.45259,0.47146 0.9105,0.92861 1.37305,1.37304 0.4561,0.47523 0.9166,0.937 1.38281,1.38477 0.46252,0.48205 0.93138,0.94853 1.4043,1.40234 0.46082,0.4802 0.92729,0.94628 1.39844,1.39844 0.47084,0.49098 0.94806,0.96603 1.42969,1.42773 0.46549,0.48518 0.93607,0.95555 1.4121,1.41211 0.47736,0.49813 0.96077,0.98121 1.44922,1.44922 0.47487,0.49536 0.95362,0.97584 1.43946,1.44141 0.48094,0.50207 0.96873,0.98748 1.46093,1.45898 0.48445,0.50588 0.97483,0.99585 1.47071,1.47071 0.49129,0.51316 0.98914,1.00897 1.49218,1.49023 0.4889,0.51053 0.9819,1.00544 1.48243,1.48438 0.4982,0.52064 1.00337,1.02389 1.51367,1.51172 0.49654,0.5188 0.99731,1.0216 1.50586,1.50781 0.50238,0.52527 1.01071,1.0335 1.52539,1.52539 0.50578,0.52897 1.01886,1.04002 1.53711,1.53515 0.51253,0.53618 1.03131,1.05522 1.55664,1.55665 0.51316,0.5367 1.0326,1.05476 1.55859,1.55664 0.51758,0.54148 1.04163,1.06622 1.57227,1.57226 0.51321,0.53694 1.03254,1.0565 1.55859,1.5586 0.52962,0.55494 1.06607,1.09156 1.60938,1.60937 0.52417,0.5488 1.05422,1.08131 1.59179,1.59375 0.53027,0.5556 1.06735,1.09296 1.61133,1.61133 0.5344,0.56011 1.07667,1.10076 1.625,1.62305 0.53789,0.56393 1.08275,1.10915 1.63477,1.63476 0.54107,0.56739 1.08917,1.11592 1.64453,1.64453 0.54487,0.57157 1.09689,1.12402 1.65625,1.65625 0.54869,0.57571 1.10457,1.13216 1.66797,1.66797 0.55511,0.58257 1.11734,1.14577 1.6875,1.6875 0.55577,0.58312 1.1186,1.14531 1.68945,1.6875 0.55594,0.58345 1.11843,1.14892 1.68945,1.69141 0.5656,0.59403 1.13948,1.16713 1.72071,1.71875 0.563,0.59119 1.13245,1.16176 1.71093,1.71093 0.57029,0.59933 1.1482,1.17819 1.73438,1.73438 0.57282,0.60212 1.15333,1.18359 1.74219,1.74219 0.57661,0.6063 1.16104,1.19171 1.7539,1.7539 0.58044,0.61047 1.16872,1.19987 1.76563,1.76563 0.5836,0.61394 1.17513,1.20665 1.77539,1.77539 0.5874,0.61813 1.18284,1.21478 1.78711,1.78711 0.5909,0.62195 1.19085,1.22127 1.79883,1.79687 0.59794,0.62955 1.20292,1.23824 1.81836,1.82032 0.60327,0.63496 1.21486,1.24733 1.83593,1.83398 0.59828,0.62932 1.20259,1.2385 1.81836,1.82031 0.5999,0.63157 1.20867,1.24043 1.82617,1.82422 0.60896,0.64185 1.22641,1.26093 1.85352,1.85352 0.61212,0.64533 1.23281,1.26773 1.86328,1.86328 0.6153,0.64882 1.23922,1.27453 1.87305,1.87304 0.62296,0.65713 1.25452,1.29095 1.89648,1.89649 0.62258,0.65648 1.25493,1.28955 1.89649,1.89453 0.62283,0.65693 1.25466,1.29111 1.89648,1.89648 0.63311,0.66832 1.27499,1.31272 1.92774,1.92774 0.63024,0.66511 1.26827,1.30566 1.91796,1.91797 0.64039,0.67637 1.29069,1.32739 1.95118,1.94922 0.64078,0.67657 1.28831,1.32919 1.94921,1.95117 0.6407,0.67667 1.29037,1.32714 1.95118,1.94922 0.64725,0.68419 1.30291,1.34421 1.9707,1.97265 0.65493,0.69249 1.32013,1.35874 1.99609,1.99414 0.65069,0.68772 1.31099,1.35105 1.98242,1.98243 0.66158,0.69986 1.33259,1.37402 2.01563,2.01562 0.65762,0.69544 1.32507,1.36603 2.00391,2.00391 0.66496,0.70384 1.34068,1.38043 2.02734,2.02539 0.67264,0.71216 1.35399,1.39888 2.04883,2.05078 0.67243,0.71164 1.35421,1.39544 2.04883,2.04687 0.67727,0.71698 1.36271,1.40857 2.0625,2.06446 0.67785,0.71756 1.366,1.40808 2.0664,2.06445 0.67897,0.71916 1.36677,1.41061 2.06836,2.06836 0.68612,0.7274 1.38256,1.42714 2.0918,2.0918 0.68989,0.73164 1.39025,1.43532 2.10351,2.10351 0.69306,0.73516 1.39664,1.44217 2.11329,2.11328 0.69977,0.74245 1.41093,1.45566 2.13476,2.13282 0.69573,0.73797 1.4016,1.44765 2.1211,2.12109 0.70531,0.74896 1.42061,1.46975 2.15039,2.15234 0.70727,0.75099 1.42634,1.472 2.1582,2.15625 0.71495,0.75935 1.44156,1.48854 2.18164,2.17969 3.87339,4.11223 8.10998,7.23672 12.7207,9.34766 4.92187,2.22656 10.25391,3.33984 15.9961,3.33984 7.5,0 13.33008,-1.66991 17.49023,-5.00976 4.16016,-3.33984 6.24024,-7.93946 6.24024,-13.79883 0,-4.39453 -1.28906,-9.28711 -3.86719,-14.67774 -2.57813,-5.39063 -6.41602,-11.2793 -11.51367,-17.66601 l 26.36718,-12.56836 -2.20117,-2.1582 0.0274,-0.0137 -2.18946,-2.14843 0.0274,-0.0137 -2.17774,-2.13671 0.0274,-0.0137 -2.16797,-2.12695 0.0273,-0.0137 -2.15625,-2.11524 0.0273,-0.0137 -2.14453,-2.10351 0.0274,-0.0137 -2.13477,-2.09375 0.0273,-0.0137 -2.125,-2.08398 0.0274,-0.0137 -2.11133,-2.07227 0.0273,-0.0137 -2.10156,-2.0625 0.0254,-0.0117 -2.08984,-2.05078 0.0273,-0.0137 -2.08008,-2.04102 0.0274,-0.0117 -2.06836,-2.02929 0.0254,-0.0117 -2.0586,-2.01953 0.0274,-0.0117 -2.04688,-2.00782 0.0274,-0.0137 -2.03516,-1.99609 0.0254,-0.0117 -0.0117,-0.0117 c 1.39897,-0.93747 2.96365,-1.88172 4.72852,-2.83203 l -9.58008,-9.75586 c -0.009,0.005 -0.018,0.009 -0.0273,0.0137 l -2.14649,-2.18554 c -0.009,0.004 -0.0166,0.009 -0.0254,0.0137 l -2.13672,-2.17578 c -0.009,0.004 -0.0166,0.009 -0.0254,0.0137 l -2.125,-2.16406 c -0.009,0.004 -0.0166,0.009 -0.0254,0.0137 l -2.11523,-2.1543 c -0.009,0.004 -0.0166,0.009 -0.0254,0.0137 l -2.10352,-2.14258 c -0.008,0.004 -0.0154,0.008 -0.0234,0.0117 l -2.09375,-2.13086 c -0.009,0.005 -0.018,0.009 -0.0273,0.0137 l -2.08008,-2.11914 c -0.009,0.004 -0.0166,0.009 -0.0254,0.0137 l -2.07226,-2.11133 c -0.008,0.004 -0.0154,0.008 -0.0234,0.0117 l -2.06055,-2.09766 c -0.009,0.004 -0.0166,0.009 -0.0254,0.0137 l -2.05078,-2.08789 c -0.008,0.004 -0.0154,0.008 -0.0234,0.0117 l -2.03906,-2.07617 c -0.009,0.004 -0.0169,0.007 -0.0254,0.0117 l -2.02734,-2.06445 c -0.009,0.004 -0.0166,0.009 -0.0254,0.0137 l -2.01757,-2.05469 c -0.008,0.004 -0.0154,0.008 -0.0234,0.0117 l -2.00781,-2.04297 c -0.008,0.004 -0.0154,0.008 -0.0234,0.0117 l -1.9961,-2.03321 c -0.009,0.004 -0.0166,0.009 -0.0254,0.0137 l -1.98437,-2.02149 c -0.008,0.004 -0.0154,0.008 -0.0234,0.0117 l -1.97461,-2.01172 c -0.009,0.004 -0.0166,0.009 -0.0254,0.0137 l -1.96289,-2 c -0.008,0.004 -0.0154,0.008 -0.0234,0.0117 l -1.95312,-1.98828 c -0.007,0.004 -0.014,0.008 -0.0215,0.0117 l -1.94336,-1.97852 c -0.008,0.004 -0.0154,0.008 -0.0234,0.0117 l -1.93164,-1.96679 c -0.009,0.004 -0.0169,0.008 -0.0254,0.0117 l -1.91993,-1.95508 c -0.007,0.004 -0.014,0.008 -0.0215,0.0117 l -1.91016,-1.94532 c -0.008,0.004 -0.0154,0.008 -0.0234,0.0117 l -1.90039,-1.93359 c -0.007,0.004 -0.014,0.008 -0.0215,0.0117 l -1.88867,-1.92383 c -0.008,0.004 -0.0154,0.008 -0.0234,0.0117 l -1.87695,-1.91211 c -0.008,0.004 -0.0154,0.008 -0.0234,0.0117 l -1.86719,-1.90039 c -0.008,0.004 -0.0154,0.008 -0.0234,0.0117 l -1.85547,-1.89063 c -0.007,0.004 -0.014,0.008 -0.0215,0.0117 l -1.8457,-1.87891 c -0.007,0.004 -0.014,0.008 -0.0215,0.0117 l -1.83594,-1.86914 c -0.007,0.004 -0.014,0.008 -0.0215,0.0117 l -1.82421,-1.85742 c -0.007,0.004 -0.0143,0.006 -0.0215,0.01 l -1.8125,-1.8457 c -0.007,0.004 -0.014,0.008 -0.0215,0.0117 l -1.80274,-1.83594 c -0.008,0.004 -0.0154,0.008 -0.0234,0.0117 l -1.79101,-1.82422 c -0.007,0.004 -0.014,0.008 -0.0215,0.0117 l -1.78125,-1.81445 c -0.007,0.004 -0.014,0.008 -0.0215,0.0117 l -1.76953,-1.80274 c -0.007,0.004 -0.014,0.008 -0.0215,0.0117 l -1.75976,-1.79297 c -0.007,0.004 -0.014,0.008 -0.0215,0.0117 l -1.74804,-1.78125 c -0.007,0.003 -0.0129,0.006 -0.0195,0.01 l -1.73828,-1.76953 c -0.007,0.004 -0.014,0.008 -0.0215,0.0117 l -1.72656,-1.75781 c -0.007,0.004 -0.0143,0.006 -0.0215,0.01 l -1.71679,-1.74805 c -0.007,0.003 -0.0129,0.006 -0.0195,0.01 l -1.70508,-1.73633 c -0.007,0.004 -0.014,0.008 -0.0215,0.0117 l -1.69531,-1.72657 c -0.007,0.003 -0.0129,0.006 -0.0195,0.01 l -1.68359,-1.71484 c -0.007,0.003 -0.0129,0.006 -0.0195,0.01 l -1.67382,-1.70312 c -0.007,0.004 -0.014,0.008 -0.0215,0.0117 l -1.66211,-1.69336 c -0.007,0.003 -0.0129,0.006 -0.0195,0.01 l -1.65234,-1.68164 c -0.007,0.003 -0.0129,0.006 -0.0195,0.01 l -1.64063,-1.66993 c -0.007,0.003 -0.0129,0.006 -0.0195,0.01 l -1.63086,-1.66016 c -0.007,0.003 -0.0129,0.006 -0.0195,0.01 l -1.61914,-1.64844 c -0.007,0.003 -0.0129,0.006 -0.0195,0.01 l -1.60938,-1.63867 c -0.007,0.003 -0.0129,0.006 -0.0195,0.01 l -1.59765,-1.62695 c -0.006,0.003 -0.0114,0.007 -0.0176,0.01 l -1.58789,-1.61718 c -0.007,0.003 -0.0129,0.006 -0.0195,0.01 l -1.57618,-1.60351 c -0.007,0.003 -0.0129,0.006 -0.0195,0.01 l -1.5664,-1.5957 c -0.006,0.003 -0.0114,0.007 -0.0176,0.01 L 327.125,277.625 c -0.007,0.003 -0.0129,0.006 -0.0195,0.01 l -1.54297,-1.57227 c -0.007,0.003 -0.0129,0.006 -0.0195,0.01 l -1.5332,-1.56055 c -0.006,0.003 -0.0114,0.007 -0.0176,0.01 l -1.52344,-1.55078 c -0.006,0.003 -0.0114,0.007 -0.0176,0.01 l -1.51367,-1.54102 c -0.006,0.003 -0.0117,0.005 -0.0176,0.008 l -1.5,-1.52735 c -0.007,0.003 -0.0129,0.006 -0.0195,0.01 l -1.49023,-1.51758 c -0.006,0.003 -0.0117,0.005 -0.0176,0.008 l -1.47852,-1.50586 c -0.007,0.003 -0.0129,0.006 -0.0195,0.01 l -1.46875,-1.4961 c -0.006,0.003 -0.0114,0.007 -0.0176,0.01 l -1.45703,-1.48438 c -0.006,0.003 -0.0114,0.007 -0.0176,0.01 l -1.44726,-1.47461 c -0.005,0.003 -0.0103,0.005 -0.0156,0.008 l -1.4375,-1.46289 c -0.006,0.003 -0.0114,0.007 -0.0176,0.01 l -1.42578,-1.45313 c -0.006,0.003 -0.0114,0.007 -0.0176,0.01 l -1.41602,-1.44141 c -0.006,0.003 -0.0117,0.005 -0.0176,0.008 l -1.40234,-1.42774 c -0.005,0.003 -0.0103,0.005 -0.0156,0.008 l -1.39453,-1.41992 c -0.006,0.003 -0.0114,0.007 -0.0176,0.01 l -1.38281,-1.40821 c -0.005,0.003 -0.0103,0.005 -0.0156,0.008 l -1.37305,-1.39649 c -0.005,0.003 -0.0103,0.005 -0.0156,0.008 l -1.36132,-1.38477 c -0.005,0.003 -0.0103,0.005 -0.0156,0.008 l -1.35156,-1.375 c -0.005,0.003 -0.0103,0.005 -0.0156,0.008 l -1.33984,-1.36328 c -0.005,0.003 -0.0103,0.005 -0.0156,0.008 l -1.33008,-1.35352 c -0.005,0.003 -0.0103,0.005 -0.0156,0.008 l -1.31836,-1.34179 c -0.005,0.002 -0.009,0.005 -0.0137,0.008 l -1.30859,-1.33203 c -0.005,0.003 -0.0103,0.005 -0.0156,0.008 l -1.29687,-1.32031 c -0.006,0.003 -0.0117,0.005 -0.0176,0.008 l -1.28516,-1.30859 c -0.005,0.002 -0.009,0.005 -0.0137,0.008 l -1.27539,-1.29883 c -0.005,0.003 -0.0103,0.005 -0.0156,0.008 L 288.75,239.25195 c -0.005,0.002 -0.009,0.005 -0.0137,0.008 l -1.25391,-1.27735 c -0.005,0.003 -0.0103,0.005 -0.0156,0.008 l -1.24219,-1.26562 c -0.005,0.003 -0.0103,0.005 -0.0156,0.008 l -1.23242,-1.2539 c -0.005,0.003 -0.0103,0.005 -0.0156,0.008 l -1.22071,-1.24414 c -0.005,0.002 -0.009,0.005 -0.0137,0.008 l -1.21094,-1.23242 c -0.005,0.002 -0.009,0.005 -0.0137,0.008 l -1.20117,-1.22266 c -0.005,0.002 -0.009,0.005 -0.0137,0.008 l -1.18945,-1.21094 c -0.005,0.002 -0.009,0.004 -0.0137,0.006 l -1.17773,-1.19922 c -0.005,0.002 -0.009,0.005 -0.0137,0.008 l -1.16797,-1.18945 c -0.005,0.003 -0.0103,0.005 -0.0156,0.008 l -1.15625,-1.17773 c -0.005,0.002 -0.009,0.005 -0.0137,0.008 l -1.14648,-1.16797 c -0.005,0.002 -0.009,0.005 -0.0137,0.008 l -1.13477,-1.15625 c -0.005,0.002 -0.009,0.005 -0.0137,0.008 l -1.125,-1.14649 c -0.005,0.002 -0.009,0.005 -0.0137,0.008 l -1.11328,-1.13476 c -0.004,0.002 -0.008,0.004 -0.0117,0.006 l -1.10352,-1.12305 c -0.005,0.002 -0.009,0.004 -0.0137,0.006 l -1.0918,-1.11133 c -0.005,0.002 -0.009,0.005 -0.0137,0.008 l -1.08203,-1.10156 c -0.005,0.002 -0.009,0.004 -0.0137,0.006 l -1.07032,-1.08984 c -0.005,0.002 -0.009,0.004 -0.0137,0.006 l -1.05859,-1.07813 c -0.005,0.002 -0.009,0.004 -0.0137,0.006 l -1.04883,-1.06836 c -0.004,0.002 -0.008,0.004 -0.0117,0.006 l -1.03906,-1.05664 c -0.004,0.002 -0.008,0.004 -0.0117,0.006 l -1.02734,-1.04492 c -0.004,0.002 -0.008,0.004 -0.0117,0.006 l -1.01758,-1.03516 c -0.004,0.002 -0.008,0.004 -0.0117,0.006 l -1.00586,-1.02539 c -0.005,0.002 -0.009,0.005 -0.0137,0.008 l -0.99414,-1.01367 c -0.003,0.002 -0.006,0.004 -0.01,0.006 l -0.98633,-1.00391 c -0.005,0.002 -0.009,0.004 -0.0137,0.006 l -0.97265,-0.99023 c -0.004,0.002 -0.008,0.004 -0.0117,0.006 l -0.96289,-0.98047 c -0.004,0.002 -0.008,0.004 -0.0117,0.006 l -0.95313,-0.9707 c -0.004,0.002 -0.008,0.004 -0.0117,0.006 l -0.9414,-0.95899 c -0.004,0.002 -0.008,0.004 -0.0117,0.006 l -0.92969,-0.94726 c -0.004,0.002 -0.008,0.004 -0.0117,0.006 l -0.91992,-0.9375 c -0.004,0.002 -0.008,0.004 -0.0117,0.006 l -0.9082,-0.92578 c -0.003,0.002 -0.006,0.004 -0.01,0.006 l -0.89843,-0.91601 c -0.003,0.002 -0.006,0.004 -0.01,0.006 l -0.88867,-0.9043 c -0.004,0.002 -0.008,0.004 -0.0117,0.006 l -0.87695,-0.89258 c -0.003,0.002 -0.006,0.004 -0.01,0.006 l -0.86719,-0.88281 c -0.003,0.002 -0.006,0.004 -0.01,0.006 l -0.85547,-0.8711 c -0.003,0.002 -0.006,0.004 -0.01,0.006 l -0.8457,-0.86133 c -0.003,0.002 -0.006,0.004 -0.01,0.006 l -0.83398,-0.84961 c -0.003,0.002 -0.006,0.004 -0.01,0.006 l -0.82422,-0.83984 c -0.003,0.002 -0.006,0.004 -0.01,0.006 l -0.8125,-0.82813 c -0.003,0.002 -0.006,0.004 -0.01,0.006 l -0.80078,-0.8164 c -0.003,0.002 -0.006,0.004 -0.01,0.006 l -0.79102,-0.80664 c -0.003,0.002 -0.007,0.002 -0.01,0.004 l -0.7793,-0.79297 c -0.003,0.002 -0.007,0.002 -0.01,0.004 l -0.76953,-0.7832 c -0.003,0.002 -0.007,0.002 -0.01,0.004 l -0.75782,-0.77148 c -0.003,0.001 -0.005,0.003 -0.008,0.004 l -0.74804,-0.76171 c -0.003,0.002 -0.007,0.002 -0.01,0.004 l -0.73633,-0.75 c -0.003,0.002 -0.006,0.004 -0.01,0.006 l -0.72657,-0.74023 c -0.003,0.001 -0.005,0.003 -0.008,0.004 l -0.7168,-0.72851 c -0.003,0.001 -0.005,0.003 -0.008,0.004 l -0.70508,-0.71679 c -0.003,10e-4 -0.005,0.003 -0.008,0.004 l -0.69336,-0.70703 c -0.003,0.002 -0.006,0.004 -0.01,0.006 l -0.6836,-0.69726 c -0.003,0.001 -0.005,0.003 -0.008,0.004 l -0.67188,-0.68359 c -0.003,10e-4 -0.005,0.003 -0.008,0.004 l -0.66211,-0.67382 c -0.002,0.001 -0.004,0.003 -0.006,0.004 l -0.65234,-0.66406 c -0.003,0.002 -0.007,0.002 -0.01,0.004 l -0.63867,-0.65039 c -0.002,10e-4 -0.004,0.003 -0.006,0.004 l -0.63086,-0.64258 c -0.003,0.001 -0.005,0.003 -0.008,0.004 l -0.61914,-0.62891 c -0.003,0.001 -0.005,0.003 -0.008,0.004 l -0.60742,-0.61914 c -0.002,0.001 -0.004,0.003 -0.006,0.004 l -0.59766,-0.60938 c -0.003,0.001 -0.005,0.003 -0.008,0.004 l -0.58594,-0.59766 c -0.003,0.001 -0.005,0.003 -0.008,0.004 l -0.57617,-0.58594 c -0.002,9.2e-4 -0.004,0.001 -0.006,0.002 l -0.56446,-0.57422 c -0.003,0.001 -0.005,0.003 -0.008,0.004 l -0.55469,-0.56445 c -0.002,0.001 -0.004,0.003 -0.006,0.004 l -0.54296,-0.55273 c -0.002,0.001 -0.004,0.003 -0.006,0.004 l -0.53321,-0.54296 c -0.002,0.001 -0.004,0.003 -0.006,0.004 l -0.52343,-0.5332 c -0.002,0.001 -0.004,0.003 -0.006,0.004 l -0.51172,-0.52149 c -0.002,10e-4 -0.004,0.003 -0.006,0.004 l -0.5,-0.50977 c -0.002,0.001 -0.004,0.003 -0.006,0.004 l -0.49023,-0.5 c -0.002,0.001 -0.004,0.003 -0.006,0.004 L 224.75,175.25195 c -0.002,9.3e-4 -0.004,0.001 -0.006,0.002 l -0.4668,-0.47461 c -0.002,9.2e-4 -0.004,0.001 -0.006,0.002 l -0.45703,-0.46484 c -0.002,9.2e-4 -0.004,0.001 -0.006,0.002 l -0.44726,-0.45508 c -10e-4,6.6e-4 -0.003,0.001 -0.004,0.002 l -0.43554,-0.44335 c -0.002,0.001 -0.004,0.003 -0.006,0.004 l -0.42579,-0.43359 c -10e-4,6.6e-4 -0.003,0.001 -0.004,0.002 l -0.41406,-0.42187 c -0.001,6.5e-4 -0.003,0.001 -0.004,0.002 l -0.4043,-0.41016 c -0.002,0.001 -0.004,0.003 -0.006,0.004 l -0.39258,-0.40039 c -0.001,6.6e-4 -0.003,0.001 -0.004,0.002 l -0.38281,-0.38867 c -10e-4,6.6e-4 -0.003,10e-4 -0.004,0.002 l -0.37109,-0.3789 c -0.002,9.2e-4 -0.004,0.001 -0.006,0.002 l -0.35938,-0.36524 c -0.001,6.6e-4 -0.003,10e-4 -0.004,0.002 l -0.34961,-0.35742 c -0.002,9.2e-4 -0.004,0.001 -0.006,0.002 l -0.33789,-0.34375 c -0.001,6.6e-4 -0.003,10e-4 -0.004,0.002 l -0.32812,-0.33398 c -0.001,6.6e-4 -0.003,0.001 -0.004,0.002 l -0.31836,-0.32422 c 0,0 -0.002,0.002 -0.002,0.002 l -0.30664,-0.3125 c -0.001,6.5e-4 -0.003,0.001 -0.004,0.002 l -0.29688,-0.30078 c -0.001,6.6e-4 -0.003,0.001 -0.004,0.002 l -0.28516,-0.29102 c -10e-4,6.6e-4 -0.003,0.001 -0.004,0.002 l -0.27344,-0.2793 c 0,0 -0.002,0.002 -0.002,0.002 l -0.26368,-0.26953 c -0.001,6.6e-4 -0.003,0.001 -0.004,0.002 l -0.25196,-0.25782 c -10e-4,6.6e-4 -0.003,0.001 -0.004,0.002 l -0.24219,-0.2461 c 0,0 -0.002,0.002 -0.002,0.002 l -0.23242,-0.23633 c 0,0 -0.002,0.002 -0.002,0.002 l -0.2207,-0.22461 c 0,0 -0.002,0.002 -0.002,0.002 l -0.21094,-0.21484 c 0,0 -0.002,0.002 -0.002,0.002 l -0.19922,-0.20312 c 0,0 -0.002,0.002 -0.002,0.002 l -0.18945,-0.19336 c 0,0 -0.002,0.002 -0.002,0.002 l -0.17774,-0.18164 c 0,0 -0.002,0.002 -0.002,0.002 l -0.16602,-0.16992 c 0,0 -0.002,0.002 -0.002,0.002 l -0.15625,-0.16016 c 0,0 -0.002,0 -0.002,0 l -0.14453,-0.14648 c 0,0 -0.002,0 -0.002,0 l -0.13476,-0.13672 c 0,0 -0.002,0 -0.002,0 l -0.12304,-0.125 -0.11328,-0.11523 c 0,0 -0.002,0 -0.002,0 l -0.10156,-0.10352 c 0,0 -0.002,0.002 -0.002,0.002 l -0.0918,-0.0937 c 0,0 -0.002,0 -0.002,0 l -0.0801,-0.082 -0.0703,-0.0703 -0.0606,-0.0606 -0.0488,-0.0488 -0.0371,-0.0371 -0.0273,-0.0274 -0.0176,-0.0176 z"
         style="font-style:normal;font-weight:normal;font-size:180px;line-height:125%;font-family:sans-serif;letter-spacing:0px;word-spacing:0px;opacity:0.2;fill:url(#linearGradient5074);fill-opacity:1;stroke:none;stroke-width:1;stroke-linecap:butt;stroke-linejoin:miter;stroke-opacity:1"
         inkscape:connector-curvature="0" />
    </g>
    <flowRoot
       style="font-style:normal;font-weight:normal;font-size:40px;line-height:125%;font-family:sans-serif;letter-spacing:0px;word-spacing:0px;fill:#000000;fill-opacity:1;stroke:none;stroke-width:1px;stroke-linecap:butt;stroke-linejoin:miter;stroke-opacity:1"
       id="flowRoot4151"
       xml:space="preserve"
       clip-path="url(#clipPath5154)"><flowRegion
         id="flowRegion4153"><rect
           y="175.89279"
           x="116.09293"
           height="223.95078"
           width="275.93103"
           id="rect4155" /></flowRegion><flowPara
         style="font-size:180px"
         id="flowPara4157">કad</flowPara></flowRoot>    <text
       sodipodi:linespacing="125%"
       id="text4159"
       y="255.63901"
       x="192.33304"
       style="font-style:normal;font-weight:normal;font-size:40px;line-height:125%;font-family:sans-serif;letter-spacing:0px;word-spacing:0px;fill:#000000;fill-opacity:1;stroke:none;stroke-width:1px;stroke-linecap:butt;stroke-linejoin:miter;stroke-opacity:1"
       xml:space="preserve"
       clip-path="url(#clipPath5150)"><tspan
         y="255.63901"
         x="192.33304"
         id="tspan4161"
         sodipodi:role="line" /></text>
    <text
       sodipodi:linespacing="125%"
       id="text4163"
       y="39.971428"
       x="193.04015"
       style="font-style:normal;font-weight:normal;font-size:40px;line-height:125%;font-family:sans-serif;letter-spacing:0px;word-spacing:0px;fill:#000000;fill-opacity:1;stroke:none;stroke-width:1px;stroke-linecap:butt;stroke-linejoin:miter;stroke-opacity:1"
       xml:space="preserve"
       clip-path="url(#clipPath5146)"><tspan
         y="39.971428"
         x="193.04015"
         id="tspan4165"
         sodipodi:role="line" /></text>
    <path
       d="m 252.52871,210.76457 -26.36719,12.56836 q 7.64648,9.58007 11.51367,17.66601 3.86719,8.08594 3.86719,14.67774 0,8.78906 -6.24024,13.79882 -6.24023,5.00977 -17.49023,5.00977 -8.61328,0 -15.99609,-3.33984 -7.29493,-3.33985 -13.35938,-10.01953 l 0,-4.04297 q 5.27344,4.30664 10.63477,6.41601 5.36132,2.10938 10.89843,2.10938 9.14063,-0.0879 14.76563,-5.09766 5.625,-5.00976 5.625,-13.97461 0,-9.84375 -7.99805,-21.35742 l -28.30078,13.53516 -9.22851,-9.22852 30.05859,-14.32617 q -10.45899,-13.88672 -13.44727,-19.77539 -2.90039,-5.97656 -2.90039,-12.12891 0,-5.44922 3.86719,-10.01953 3.95508,-4.6582 11.77734,-8.52539 l 9.58008,9.75586 q -7.99804,4.30664 -10.98633,8.4375 -2.90039,4.13086 -2.90039,10.89844 0,7.82226 8.52539,19.6875 l 24.78516,-11.86524 9.31641,9.14063 z"
       style="font-style:normal;font-weight:normal;font-size:180px;line-height:125%;font-family:sans-serif;letter-spacing:0px;word-spacing:0px;fill:#ffffff;fill-opacity:1;stroke:none;stroke-width:1px;stroke-linecap:butt;stroke-linejoin:miter;stroke-opacity:1"
       id="path4172"
       inkscape:connector-curvature="0"
       clip-path="url(#clipPath5142)" />
    <path
       inkscape:connector-curvature="0"
       id="path4176"
       style="font-style:normal;font-weight:normal;font-size:180px;line-height:125%;font-family:sans-serif;letter-spacing:0px;word-spacing:0px;fill:#000000;fill-opacity:1;stroke:none;stroke-width:1px;stroke-linecap:butt;stroke-linejoin:miter;stroke-opacity:1"
       d="m 472.52871,430.76457 -26.36719,12.56836 q 7.64648,9.58007 11.51367,17.66601 3.86719,8.08594 3.86719,14.67774 0,8.78906 -6.24024,13.79882 -6.24023,5.00977 -17.49023,5.00977 -8.61328,0 -15.99609,-3.33984 -7.29493,-3.33985 -13.35938,-10.01953 l 0,-4.04297 q 5.27344,4.30664 10.63477,6.41601 5.36132,2.10938 10.89843,2.10938 9.14063,-0.0879 14.76563,-5.09766 5.625,-5.00976 5.625,-13.97461 0,-9.84375 -7.99805,-21.35742 l -28.30078,13.53516 -9.22851,-9.22852 30.05859,-14.32617 q -10.45899,-13.88672 -13.44727,-19.77539 -2.90039,-5.97656 -2.90039,-12.12891 0,-5.44922 3.86719,-10.01953 3.95508,-4.6582 11.77734,-8.52539 l 9.58008,9.75586 q -7.99804,4.30664 -10.98633,8.4375 -2.90039,4.13086 -2.90039,10.89844 0,7.82226 8.52539,19.6875 l 24.78516,-11.86524 9.31641,9.14063 z"
       clip-path="url(#clipPath5138)" />
  </g>
</svg>
